<mxfile host="app.diagrams.net" modified="2021-09-02T06:04:20.919Z" agent="5.0 (Windows NT 10.0; WOW64) AppleWebKit/537.36 (KHTML, like Gecko) Chrome/92.0.4515.159 Safari/537.36" etag="CyLHxa1BirKn83XwOhSt" version="15.0.5" type="github">
  <diagram id="uJUL8nPjyXX1YJYvQ8WT" name="Page-1">
    <mxGraphModel dx="1422" dy="762" grid="0" gridSize="10" guides="0" tooltips="1" connect="1" arrows="1" fold="1" page="1" pageScale="1" pageWidth="827" pageHeight="1169" background="#FFFFFF" math="0" shadow="0">
      <root>
        <mxCell id="0" />
        <mxCell id="1" parent="0" />
        <mxCell id="msUb0m_vn2ZmatBH2LY8-53" value="" style="rounded=0;whiteSpace=wrap;html=1;fillColor=#dae8fc;strokeColor=#6c8ebf;" vertex="1" parent="1">
          <mxGeometry x="426" y="61" width="222" height="346" as="geometry" />
        </mxCell>
        <mxCell id="msUb0m_vn2ZmatBH2LY8-2" value="UIH_AppointSelfService&amp;nbsp;&amp;nbsp;&lt;br&gt;7023" style="ellipse;whiteSpace=wrap;html=1;" vertex="1" parent="1">
          <mxGeometry x="473" y="305" width="142" height="83" as="geometry" />
        </mxCell>
        <mxCell id="msUb0m_vn2ZmatBH2LY8-3" value="UIH_AppointMobile&lt;br&gt;7021&amp;nbsp;" style="ellipse;whiteSpace=wrap;html=1;" vertex="1" parent="1">
          <mxGeometry x="478" y="77" width="139" height="94" as="geometry" />
        </mxCell>
        <mxCell id="msUb0m_vn2ZmatBH2LY8-42" style="edgeStyle=none;rounded=0;orthogonalLoop=1;jettySize=auto;html=1;entryX=0.014;entryY=0.574;entryDx=0;entryDy=0;entryPerimeter=0;" edge="1" parent="1" source="msUb0m_vn2ZmatBH2LY8-12" target="msUb0m_vn2ZmatBH2LY8-3">
          <mxGeometry relative="1" as="geometry">
            <mxPoint x="386" y="264.2620087336245" as="targetPoint" />
          </mxGeometry>
        </mxCell>
        <mxCell id="msUb0m_vn2ZmatBH2LY8-43" style="edgeStyle=none;rounded=0;orthogonalLoop=1;jettySize=auto;html=1;entryX=0.007;entryY=0.43;entryDx=0;entryDy=0;entryPerimeter=0;" edge="1" parent="1" source="msUb0m_vn2ZmatBH2LY8-12" target="msUb0m_vn2ZmatBH2LY8-41">
          <mxGeometry relative="1" as="geometry" />
        </mxCell>
        <mxCell id="msUb0m_vn2ZmatBH2LY8-44" style="edgeStyle=none;rounded=0;orthogonalLoop=1;jettySize=auto;html=1;entryX=0;entryY=0.5;entryDx=0;entryDy=0;" edge="1" parent="1" source="msUb0m_vn2ZmatBH2LY8-12" target="msUb0m_vn2ZmatBH2LY8-2">
          <mxGeometry relative="1" as="geometry" />
        </mxCell>
        <mxCell id="msUb0m_vn2ZmatBH2LY8-12" value="API 网关&lt;br&gt;" style="shape=mxgraph.cisco.computers_and_peripherals.ibm_mini_as400;html=1;pointerEvents=1;dashed=0;fillColor=#036897;strokeColor=#ffffff;strokeWidth=2;verticalLabelPosition=bottom;verticalAlign=top;align=center;outlineConnect=0;" vertex="1" parent="1">
          <mxGeometry x="277" y="203" width="46" height="102" as="geometry" />
        </mxCell>
        <mxCell id="msUb0m_vn2ZmatBH2LY8-16" style="rounded=0;orthogonalLoop=1;jettySize=auto;html=1;" edge="1" parent="1" source="msUb0m_vn2ZmatBH2LY8-15" target="msUb0m_vn2ZmatBH2LY8-12">
          <mxGeometry relative="1" as="geometry" />
        </mxCell>
        <mxCell id="msUb0m_vn2ZmatBH2LY8-15" value="移动预约子系统&lt;br&gt;8021" style="ellipse;whiteSpace=wrap;html=1;" vertex="1" parent="1">
          <mxGeometry x="52" y="130" width="120" height="80" as="geometry" />
        </mxCell>
        <mxCell id="msUb0m_vn2ZmatBH2LY8-20" style="rounded=0;orthogonalLoop=1;jettySize=auto;html=1;" edge="1" parent="1" source="msUb0m_vn2ZmatBH2LY8-19" target="msUb0m_vn2ZmatBH2LY8-12">
          <mxGeometry relative="1" as="geometry" />
        </mxCell>
        <mxCell id="msUb0m_vn2ZmatBH2LY8-19" value="自助机预约子系统&lt;br&gt;8023" style="ellipse;whiteSpace=wrap;html=1;" vertex="1" parent="1">
          <mxGeometry x="42" y="333" width="120" height="80" as="geometry" />
        </mxCell>
        <mxCell id="msUb0m_vn2ZmatBH2LY8-26" value="Use 7022" style="edgeLabel;html=1;align=center;verticalAlign=middle;resizable=0;points=[];" vertex="1" connectable="0" parent="1">
          <mxGeometry x="396" y="218" as="geometry">
            <mxPoint x="4" y="10" as="offset" />
          </mxGeometry>
        </mxCell>
        <mxCell id="msUb0m_vn2ZmatBH2LY8-34" value="UIHAppointWinService&amp;nbsp;" style="ellipse;whiteSpace=wrap;html=1;" vertex="1" parent="1">
          <mxGeometry x="469" y="418" width="146" height="81" as="geometry" />
        </mxCell>
        <mxCell id="msUb0m_vn2ZmatBH2LY8-41" value="UIH_Appoint&amp;nbsp;&lt;br&gt;7022" style="ellipse;whiteSpace=wrap;html=1;" vertex="1" parent="1">
          <mxGeometry x="473" y="197" width="144" height="86" as="geometry" />
        </mxCell>
        <mxCell id="msUb0m_vn2ZmatBH2LY8-45" value="&lt;span style=&quot;color: rgb(0, 0, 0); font-family: helvetica; font-size: 11px; font-style: normal; font-weight: 400; letter-spacing: normal; text-align: center; text-indent: 0px; text-transform: none; word-spacing: 0px; background-color: rgb(255, 255, 255); display: inline; float: none;&quot;&gt;Use 7021&lt;/span&gt;" style="text;whiteSpace=wrap;html=1;" vertex="1" parent="1">
          <mxGeometry x="352" y="156" width="71" height="28" as="geometry" />
        </mxCell>
        <mxCell id="msUb0m_vn2ZmatBH2LY8-46" value="&lt;span style=&quot;color: rgb(0 , 0 , 0) ; font-family: &amp;#34;helvetica&amp;#34; ; font-size: 11px ; font-style: normal ; font-weight: 400 ; letter-spacing: normal ; text-align: center ; text-indent: 0px ; text-transform: none ; word-spacing: 0px ; background-color: rgb(255 , 255 , 255) ; display: inline ; float: none&quot;&gt;Use 7023&lt;/span&gt;" style="text;whiteSpace=wrap;html=1;" vertex="1" parent="1">
          <mxGeometry x="391" y="291" width="71" height="28" as="geometry" />
        </mxCell>
        <mxCell id="msUb0m_vn2ZmatBH2LY8-49" style="edgeStyle=none;rounded=0;orthogonalLoop=1;jettySize=auto;html=1;" edge="1" parent="1" source="msUb0m_vn2ZmatBH2LY8-48" target="msUb0m_vn2ZmatBH2LY8-12">
          <mxGeometry relative="1" as="geometry" />
        </mxCell>
        <mxCell id="msUb0m_vn2ZmatBH2LY8-48" value="分诊台预约子系统&lt;br&gt;8022" style="ellipse;whiteSpace=wrap;html=1;" vertex="1" parent="1">
          <mxGeometry x="45" y="233" width="120" height="80" as="geometry" />
        </mxCell>
        <mxCell id="msUb0m_vn2ZmatBH2LY8-54" value="IIS" style="text;html=1;strokeColor=none;fillColor=none;align=center;verticalAlign=middle;whiteSpace=wrap;rounded=0;" vertex="1" parent="1">
          <mxGeometry x="444" y="77" width="40" height="20" as="geometry" />
        </mxCell>
        <mxCell id="msUb0m_vn2ZmatBH2LY8-55" style="edgeStyle=none;rounded=0;orthogonalLoop=1;jettySize=auto;html=1;exitX=0.5;exitY=1;exitDx=0;exitDy=0;" edge="1" parent="1" source="msUb0m_vn2ZmatBH2LY8-54" target="msUb0m_vn2ZmatBH2LY8-54">
          <mxGeometry relative="1" as="geometry" />
        </mxCell>
        <mxCell id="msUb0m_vn2ZmatBH2LY8-56" value="" style="endArrow=classic;html=1;" edge="1" parent="1">
          <mxGeometry relative="1" as="geometry">
            <mxPoint x="332" y="342" as="sourcePoint" />
            <mxPoint x="492" y="342" as="targetPoint" />
          </mxGeometry>
        </mxCell>
        <mxCell id="msUb0m_vn2ZmatBH2LY8-57" value="Label" style="edgeLabel;resizable=0;html=1;align=center;verticalAlign=middle;" connectable="0" vertex="1" parent="msUb0m_vn2ZmatBH2LY8-56">
          <mxGeometry relative="1" as="geometry" />
        </mxCell>
        <mxCell id="msUb0m_vn2ZmatBH2LY8-58" value="Source" style="edgeLabel;resizable=0;html=1;align=left;verticalAlign=bottom;" connectable="0" vertex="1" parent="msUb0m_vn2ZmatBH2LY8-56">
          <mxGeometry x="-1" relative="1" as="geometry" />
        </mxCell>
      </root>
    </mxGraphModel>
  </diagram>
</mxfile>
